<svg width="1402" height="350" viewBox="0 0 1402 350" fill="none" xmlns="http://www.w3.org/2000/svg">
    <path
        d="M34.4769 247.224C11.6061 224.004 0 188.491 0 141.027C0 93.904 11.9475 58.7327 35.501 35.1713C59.0546 11.6099 93.5314 0 138.932 0C163.509 0 185.015 3.75616 204.131 10.927C223.247 18.0979 238.266 29.3663 249.19 44.0495C260.113 58.7327 265.575 76.8306 265.575 98.0016H220.516C220.516 78.5379 213.006 63.5133 198.328 53.2692C183.649 43.0251 164.192 37.9031 139.956 37.9031C108.21 37.9031 84.6562 46.0983 69.2952 62.4888C53.9342 78.8794 46.083 104.49 46.083 139.661V144.1C46.083 179.613 53.5928 205.223 68.2711 221.272C83.2908 237.321 105.82 245.175 136.201 245.175C164.192 245.175 185.356 239.028 200.034 227.077C214.371 215.126 221.881 197.369 221.881 173.808V171.417H129.032V133.856H265.575V277.614H232.805L229.05 247.565C207.203 270.785 175.798 282.395 134.835 282.395C90.8006 282.395 57.3478 270.785 34.4769 247.224Z"
        fill="#F3F2F0" fill-opacity="0.6" />
    <path
        d="M319.842 68.6362H352.953L357.05 100.734H359.439C368.997 76.1486 385.041 63.8557 407.57 63.8557C415.08 63.8557 421.566 64.8801 427.027 66.9289V105.856H412.349C396.647 105.856 384.017 110.295 374.8 119.515C365.583 128.393 360.804 142.394 360.804 160.833V277.615H319.842V68.6362Z"
        fill="#F3F2F0" fill-opacity="0.6" />
    <path
        d="M472.439 255.761C456.054 238.005 447.861 210.346 447.861 173.126C447.861 135.906 456.054 108.247 472.439 90.4902C488.824 72.7339 514.084 63.8557 547.879 63.8557C578.601 63.8557 601.471 72.0509 616.491 88.7829C631.511 105.173 639.362 131.467 639.362 167.662V183.711H490.189C491.213 206.248 496.334 222.98 505.55 233.566C514.767 244.151 529.104 249.615 548.561 249.615C563.581 249.615 575.87 246.2 585.428 239.029C594.644 231.858 599.423 220.931 599.423 205.907H639.703C639.703 230.834 631.169 249.956 614.443 262.932C597.375 275.908 575.528 282.737 548.22 282.737C514.084 282.396 488.824 273.518 472.439 255.761ZM596.351 152.296C596.351 115.076 579.966 96.6367 547.537 96.6367C529.445 96.6367 515.791 101.076 506.916 109.954C497.699 118.832 492.238 132.832 490.531 152.296H596.351Z"
        fill="#F3F2F0" fill-opacity="0.6" />
    <path
        d="M681.34 68.6362H714.451L718.548 96.2952H721.278C728.447 85.7097 737.322 77.5144 747.563 72.0509C757.804 66.5874 769.751 63.8557 783.064 63.8557C810.372 63.8557 828.464 74.7827 837.681 96.2952H840.07C847.239 86.0511 856.455 77.8559 867.72 72.3924C878.985 66.5874 891.274 63.8557 904.587 63.8557C924.385 63.8557 939.746 68.9777 951.011 79.5632C962.276 90.1488 967.737 106.881 967.737 130.101V277.615H926.775V137.954C926.775 123.613 923.702 113.369 917.558 107.564C911.414 101.759 902.538 98.6855 891.274 98.6855C878.302 98.6855 867.379 103.808 858.503 114.052C849.628 124.296 845.191 137.954 845.191 154.686V277.615H804.228V137.954C804.228 123.613 801.156 113.369 795.353 107.564C789.208 101.759 780.674 98.6855 769.751 98.6855C756.78 98.6855 745.515 103.808 736.639 114.052C727.423 124.296 722.985 137.954 722.985 154.686V277.615H682.023V68.6362H681.34Z"
        fill="#F3F2F0" fill-opacity="0.6" />
    <path
        d="M1031.22 255.761C1015.86 238.005 1008.01 210.346 1008.01 173.126C1008.01 135.906 1015.86 108.247 1031.22 90.4902C1046.93 72.7339 1070.82 63.8557 1102.91 63.8557C1131.24 63.8557 1152.75 70.685 1167.08 84.6853C1181.42 98.6855 1188.59 119.174 1188.59 146.491H1146.94C1146.94 129.418 1143.53 117.125 1136.7 109.271C1129.88 101.417 1118.61 97.3196 1102.57 97.3196C1084.48 97.3196 1071.16 103.125 1062.97 115.076C1054.44 127.027 1050.34 146.15 1050.34 172.443V175.175C1050.34 201.126 1054.44 219.907 1062.97 231.517C1071.5 243.127 1084.82 248.932 1103.59 248.932C1119.29 248.932 1130.9 244.834 1138.07 236.298C1145.24 228.102 1148.99 215.809 1148.99 199.419H1188.59C1188.59 224.346 1181.42 244.151 1167.08 259.517C1152.75 274.542 1131.58 282.054 1103.25 282.054C1070.48 282.396 1046.58 273.518 1031.22 255.761Z"
        fill="#F3F2F0" fill-opacity="0.6" />
    <path
        d="M1220 345.902V318.926H1237.41C1261.65 318.926 1277.69 305.268 1286.22 277.609L1204.64 68.6295H1247.65L1286.91 171.07C1292.37 184.729 1298.85 205.217 1307.39 233.559H1309.43C1316.94 206.924 1323.09 186.436 1327.87 171.07L1360.64 68.6295H1401.6L1332.31 267.023C1322.75 293.658 1311.82 313.804 1299.88 328.487C1287.93 342.829 1271.54 350 1250.72 350C1237.75 350 1227.51 348.634 1220 345.902Z"
        fill="#F3F2F0" fill-opacity="0.6" />
</svg>